<svg xmlns="http://www.w3.org/2000/svg" version="1.1" xmlns:xlink="http://www.w3.org/1999/xlink" xmlns:svgjs="http://svgjs.com/svgjs" width="1980" height="800" preserveAspectRatio="none" viewBox="0 0 1980 800"><g mask="url(&quot;#SvgjsMask1415&quot;)" fill="none"><rect width="1980" height="800" x="0" y="0" fill="url(#SvgjsLinearGradient1416)"></rect><path d="M137.98 314.76L202.94 352.26L202.94 427.26L137.98 464.76L73.03 427.26L73.03 352.26zM73.03 427.26L137.98 464.76L137.98 539.76L73.03 577.26L8.08 539.76L8.08 464.76zM73.03 652.26L137.98 689.76L137.98 764.76L73.03 802.26L8.08 764.76L8.08 689.76zM137.98 764.76L202.94 802.26L202.94 877.26L137.98 914.76L73.03 877.26L73.03 802.26zM202.94 427.26L267.89 464.76L267.89 539.76L202.94 577.26L137.98 539.76L137.98 464.76zM267.89 539.76L332.85 577.26L332.85 652.26L267.89 689.76L202.94 652.26L202.94 577.26zM202.94 652.26L267.89 689.76L267.89 764.76L202.94 802.26L137.98 764.76L137.98 689.76zM332.85 -22.74L397.8 14.76L397.8 89.76L332.85 127.26L267.89 89.76L267.89 14.76zM397.8 89.76L462.75 127.26L462.75 202.26L397.8 239.76L332.85 202.26L332.85 127.26zM397.8 314.76L462.75 352.26L462.75 427.26L397.8 464.76L332.85 427.26L332.85 352.26zM332.85 427.26L397.8 464.76L397.8 539.76L332.85 577.26L267.89 539.76L267.89 464.76zM462.75 202.26L527.71 239.76L527.71 314.76L462.75 352.26L397.8 314.76L397.8 239.76zM462.75 427.26L527.71 464.76L527.71 539.76L462.75 577.26L397.8 539.76L397.8 464.76zM527.71 539.76L592.66 577.26L592.66 652.26L527.71 689.76L462.75 652.26L462.75 577.26zM462.75 652.26L527.71 689.76L527.71 764.76L462.75 802.26L397.8 764.76L397.8 689.76zM527.71 764.76L592.66 802.26L592.66 877.26L527.71 914.76L462.75 877.26L462.75 802.26zM592.66 -22.74L657.61 14.76L657.61 89.76L592.66 127.26L527.71 89.76L527.71 14.76zM657.61 89.76L722.57 127.26L722.57 202.26L657.61 239.76L592.66 202.26L592.66 127.26zM592.66 202.26L657.61 239.76L657.61 314.76L592.66 352.26L527.71 314.76L527.71 239.76zM657.61 764.76L722.57 802.26L722.57 877.26L657.61 914.76L592.66 877.26L592.66 802.26zM722.57 202.26L787.52 239.76L787.52 314.76L722.57 352.26L657.61 314.76L657.61 239.76zM787.52 314.76L852.48 352.26L852.48 427.26L787.52 464.76L722.57 427.26L722.57 352.26zM787.52 539.76L852.48 577.26L852.48 652.26L787.52 689.76L722.57 652.26L722.57 577.26zM852.47 -22.74L917.43 14.76L917.43 89.76L852.47 127.26L787.52 89.76L787.52 14.76zM917.43 89.76L982.38 127.26L982.38 202.26L917.43 239.76L852.47 202.26L852.47 127.26zM852.47 202.26L917.43 239.76L917.43 314.76L852.47 352.26L787.52 314.76L787.52 239.76zM852.47 652.26L917.43 689.76L917.43 764.76L852.47 802.26L787.52 764.76L787.52 689.76zM982.38 -22.74L1047.34 14.76L1047.34 89.76L982.38 127.26L917.43 89.76L917.43 14.76zM1047.34 539.76L1112.29 577.26L1112.29 652.26L1047.34 689.76L982.38 652.26L982.38 577.26zM1177.24 314.76L1242.2 352.26L1242.2 427.26L1177.24 464.76L1112.29 427.26L1112.29 352.26zM1112.29 652.26L1177.24 689.76L1177.24 764.76L1112.29 802.26L1047.34 764.76L1047.34 689.76zM1177.24 764.76L1242.2 802.26L1242.2 877.26L1177.24 914.76L1112.29 877.26L1112.29 802.26zM1307.15 89.76L1372.1 127.26L1372.1 202.26L1307.15 239.76L1242.2 202.26L1242.2 127.26zM1242.2 202.26L1307.15 239.76L1307.15 314.76L1242.2 352.26L1177.24 314.76L1177.24 239.76zM1242.2 427.26L1307.15 464.76L1307.15 539.76L1242.2 577.26L1177.24 539.76L1177.24 464.76zM1307.15 764.76L1372.1 802.26L1372.1 877.26L1307.15 914.76L1242.2 877.26L1242.2 802.26zM1372.11 -22.74L1437.06 14.76L1437.06 89.76L1372.11 127.26L1307.15 89.76L1307.15 14.76zM1372.11 202.26L1437.06 239.76L1437.06 314.76L1372.11 352.26L1307.15 314.76L1307.15 239.76zM1437.06 314.76L1502.01 352.26L1502.01 427.26L1437.06 464.76L1372.11 427.26L1372.11 352.26zM1437.06 764.76L1502.01 802.26L1502.01 877.26L1437.06 914.76L1372.11 877.26L1372.11 802.26zM1502.01 -22.74L1566.97 14.76L1566.97 89.76L1502.01 127.26L1437.06 89.76L1437.06 14.76zM1566.97 539.76L1631.92 577.26L1631.92 652.26L1566.97 689.76L1502.01 652.26L1502.01 577.26zM1502.01 652.26L1566.97 689.76L1566.97 764.76L1502.01 802.26L1437.06 764.76L1437.06 689.76zM1631.92 427.26L1696.87 464.76L1696.87 539.76L1631.92 577.26L1566.97 539.76L1566.97 464.76zM1696.87 539.76L1761.83 577.26L1761.83 652.26L1696.87 689.76L1631.92 652.26L1631.92 577.26zM1631.92 652.26L1696.87 689.76L1696.87 764.76L1631.92 802.26L1566.97 764.76L1566.97 689.76zM1696.87 764.76L1761.83 802.26L1761.83 877.26L1696.87 914.76L1631.92 877.26L1631.92 802.26zM1826.78 89.76L1891.73 127.26L1891.73 202.26L1826.78 239.76L1761.83 202.26L1761.83 127.26zM1826.78 539.76L1891.73 577.26L1891.73 652.26L1826.78 689.76L1761.83 652.26L1761.83 577.26zM1761.83 652.26L1826.78 689.76L1826.78 764.76L1761.83 802.26L1696.87 764.76L1696.87 689.76zM1826.78 764.76L1891.73 802.26L1891.73 877.26L1826.78 914.76L1761.83 877.26L1761.83 802.26zM1956.69 89.76L2021.64 127.26L2021.64 202.26L1956.69 239.76L1891.73 202.26L1891.73 127.26zM1956.69 314.76L2021.64 352.26L2021.64 427.26L1956.69 464.76L1891.73 427.26L1891.73 352.26zM1891.73 427.26L1956.69 464.76L1956.69 539.76L1891.73 577.26L1826.78 539.76L1826.78 464.76zM1891.73 652.26L1956.69 689.76L1956.69 764.76L1891.73 802.26L1826.78 764.76L1826.78 689.76zM2021.64 -22.74L2086.6 14.76L2086.6 89.76L2021.64 127.26L1956.69 89.76L1956.69 14.76zM2021.64 652.26L2086.6 689.76L2086.6 764.76L2021.64 802.26L1956.69 764.76L1956.69 689.76z" stroke="rgba(151, 0, 240, 0.47)" stroke-width="2"></path><path d="M130.48 314.76 a7.5 7.5 0 1 0 15 0 a7.5 7.5 0 1 0 -15 0zM195.44 352.26 a7.5 7.5 0 1 0 15 0 a7.5 7.5 0 1 0 -15 0zM195.44 427.26 a7.5 7.5 0 1 0 15 0 a7.5 7.5 0 1 0 -15 0zM130.48 464.76 a7.5 7.5 0 1 0 15 0 a7.5 7.5 0 1 0 -15 0zM65.53 427.26 a7.5 7.5 0 1 0 15 0 a7.5 7.5 0 1 0 -15 0zM65.53 352.26 a7.5 7.5 0 1 0 15 0 a7.5 7.5 0 1 0 -15 0zM130.48 539.76 a7.5 7.5 0 1 0 15 0 a7.5 7.5 0 1 0 -15 0zM65.53 577.26 a7.5 7.5 0 1 0 15 0 a7.5 7.5 0 1 0 -15 0zM0.58 539.76 a7.5 7.5 0 1 0 15 0 a7.5 7.5 0 1 0 -15 0zM0.58 464.76 a7.5 7.5 0 1 0 15 0 a7.5 7.5 0 1 0 -15 0zM65.53 652.26 a7.5 7.5 0 1 0 15 0 a7.5 7.5 0 1 0 -15 0zM130.48 689.76 a7.5 7.5 0 1 0 15 0 a7.5 7.5 0 1 0 -15 0zM130.48 764.76 a7.5 7.5 0 1 0 15 0 a7.5 7.5 0 1 0 -15 0zM65.53 802.26 a7.5 7.5 0 1 0 15 0 a7.5 7.5 0 1 0 -15 0zM0.58 764.76 a7.5 7.5 0 1 0 15 0 a7.5 7.5 0 1 0 -15 0zM0.58 689.76 a7.5 7.5 0 1 0 15 0 a7.5 7.5 0 1 0 -15 0zM195.44 802.26 a7.5 7.5 0 1 0 15 0 a7.5 7.5 0 1 0 -15 0zM195.44 877.26 a7.5 7.5 0 1 0 15 0 a7.5 7.5 0 1 0 -15 0zM130.48 914.76 a7.5 7.5 0 1 0 15 0 a7.5 7.5 0 1 0 -15 0zM65.53 877.26 a7.5 7.5 0 1 0 15 0 a7.5 7.5 0 1 0 -15 0zM260.39 464.76 a7.5 7.5 0 1 0 15 0 a7.5 7.5 0 1 0 -15 0zM260.39 539.76 a7.5 7.5 0 1 0 15 0 a7.5 7.5 0 1 0 -15 0zM195.44 577.26 a7.5 7.5 0 1 0 15 0 a7.5 7.5 0 1 0 -15 0zM325.35 577.26 a7.5 7.5 0 1 0 15 0 a7.5 7.5 0 1 0 -15 0zM325.35 652.26 a7.5 7.5 0 1 0 15 0 a7.5 7.5 0 1 0 -15 0zM260.39 689.76 a7.5 7.5 0 1 0 15 0 a7.5 7.5 0 1 0 -15 0zM195.44 652.26 a7.5 7.5 0 1 0 15 0 a7.5 7.5 0 1 0 -15 0zM260.39 764.76 a7.5 7.5 0 1 0 15 0 a7.5 7.5 0 1 0 -15 0zM325.35 -22.74 a7.5 7.5 0 1 0 15 0 a7.5 7.5 0 1 0 -15 0zM390.3 14.76 a7.5 7.5 0 1 0 15 0 a7.5 7.5 0 1 0 -15 0zM390.3 89.76 a7.5 7.5 0 1 0 15 0 a7.5 7.5 0 1 0 -15 0zM325.35 127.26 a7.5 7.5 0 1 0 15 0 a7.5 7.5 0 1 0 -15 0zM260.39 89.76 a7.5 7.5 0 1 0 15 0 a7.5 7.5 0 1 0 -15 0zM260.39 14.76 a7.5 7.5 0 1 0 15 0 a7.5 7.5 0 1 0 -15 0zM455.25 127.26 a7.5 7.5 0 1 0 15 0 a7.5 7.5 0 1 0 -15 0zM455.25 202.26 a7.5 7.5 0 1 0 15 0 a7.5 7.5 0 1 0 -15 0zM390.3 239.76 a7.5 7.5 0 1 0 15 0 a7.5 7.5 0 1 0 -15 0zM325.35 202.26 a7.5 7.5 0 1 0 15 0 a7.5 7.5 0 1 0 -15 0zM390.3 314.76 a7.5 7.5 0 1 0 15 0 a7.5 7.5 0 1 0 -15 0zM455.25 352.26 a7.5 7.5 0 1 0 15 0 a7.5 7.5 0 1 0 -15 0zM455.25 427.26 a7.5 7.5 0 1 0 15 0 a7.5 7.5 0 1 0 -15 0zM390.3 464.76 a7.5 7.5 0 1 0 15 0 a7.5 7.5 0 1 0 -15 0zM325.35 427.26 a7.5 7.5 0 1 0 15 0 a7.5 7.5 0 1 0 -15 0zM325.35 352.26 a7.5 7.5 0 1 0 15 0 a7.5 7.5 0 1 0 -15 0zM390.3 539.76 a7.5 7.5 0 1 0 15 0 a7.5 7.5 0 1 0 -15 0zM520.21 239.76 a7.5 7.5 0 1 0 15 0 a7.5 7.5 0 1 0 -15 0zM520.21 314.76 a7.5 7.5 0 1 0 15 0 a7.5 7.5 0 1 0 -15 0zM520.21 464.76 a7.5 7.5 0 1 0 15 0 a7.5 7.5 0 1 0 -15 0zM520.21 539.76 a7.5 7.5 0 1 0 15 0 a7.5 7.5 0 1 0 -15 0zM455.25 577.26 a7.5 7.5 0 1 0 15 0 a7.5 7.5 0 1 0 -15 0zM585.16 577.26 a7.5 7.5 0 1 0 15 0 a7.5 7.5 0 1 0 -15 0zM585.16 652.26 a7.5 7.5 0 1 0 15 0 a7.5 7.5 0 1 0 -15 0zM520.21 689.76 a7.5 7.5 0 1 0 15 0 a7.5 7.5 0 1 0 -15 0zM455.25 652.26 a7.5 7.5 0 1 0 15 0 a7.5 7.5 0 1 0 -15 0zM520.21 764.76 a7.5 7.5 0 1 0 15 0 a7.5 7.5 0 1 0 -15 0zM455.25 802.26 a7.5 7.5 0 1 0 15 0 a7.5 7.5 0 1 0 -15 0zM390.3 764.76 a7.5 7.5 0 1 0 15 0 a7.5 7.5 0 1 0 -15 0zM390.3 689.76 a7.5 7.5 0 1 0 15 0 a7.5 7.5 0 1 0 -15 0zM585.16 802.26 a7.5 7.5 0 1 0 15 0 a7.5 7.5 0 1 0 -15 0zM585.16 877.26 a7.5 7.5 0 1 0 15 0 a7.5 7.5 0 1 0 -15 0zM520.21 914.76 a7.5 7.5 0 1 0 15 0 a7.5 7.5 0 1 0 -15 0zM455.25 877.26 a7.5 7.5 0 1 0 15 0 a7.5 7.5 0 1 0 -15 0zM585.16 -22.74 a7.5 7.5 0 1 0 15 0 a7.5 7.5 0 1 0 -15 0zM650.11 14.76 a7.5 7.5 0 1 0 15 0 a7.5 7.5 0 1 0 -15 0zM650.11 89.76 a7.5 7.5 0 1 0 15 0 a7.5 7.5 0 1 0 -15 0zM585.16 127.26 a7.5 7.5 0 1 0 15 0 a7.5 7.5 0 1 0 -15 0zM520.21 89.76 a7.5 7.5 0 1 0 15 0 a7.5 7.5 0 1 0 -15 0zM520.21 14.76 a7.5 7.5 0 1 0 15 0 a7.5 7.5 0 1 0 -15 0zM715.07 127.26 a7.5 7.5 0 1 0 15 0 a7.5 7.5 0 1 0 -15 0zM715.07 202.26 a7.5 7.5 0 1 0 15 0 a7.5 7.5 0 1 0 -15 0zM650.11 239.76 a7.5 7.5 0 1 0 15 0 a7.5 7.5 0 1 0 -15 0zM585.16 202.26 a7.5 7.5 0 1 0 15 0 a7.5 7.5 0 1 0 -15 0zM650.11 314.76 a7.5 7.5 0 1 0 15 0 a7.5 7.5 0 1 0 -15 0zM585.16 352.26 a7.5 7.5 0 1 0 15 0 a7.5 7.5 0 1 0 -15 0zM650.11 764.76 a7.5 7.5 0 1 0 15 0 a7.5 7.5 0 1 0 -15 0zM715.07 802.26 a7.5 7.5 0 1 0 15 0 a7.5 7.5 0 1 0 -15 0zM715.07 877.26 a7.5 7.5 0 1 0 15 0 a7.5 7.5 0 1 0 -15 0zM650.11 914.76 a7.5 7.5 0 1 0 15 0 a7.5 7.5 0 1 0 -15 0zM780.02 239.76 a7.5 7.5 0 1 0 15 0 a7.5 7.5 0 1 0 -15 0zM780.02 314.76 a7.5 7.5 0 1 0 15 0 a7.5 7.5 0 1 0 -15 0zM715.07 352.26 a7.5 7.5 0 1 0 15 0 a7.5 7.5 0 1 0 -15 0zM844.98 352.26 a7.5 7.5 0 1 0 15 0 a7.5 7.5 0 1 0 -15 0zM844.98 427.26 a7.5 7.5 0 1 0 15 0 a7.5 7.5 0 1 0 -15 0zM780.02 464.76 a7.5 7.5 0 1 0 15 0 a7.5 7.5 0 1 0 -15 0zM715.07 427.26 a7.5 7.5 0 1 0 15 0 a7.5 7.5 0 1 0 -15 0zM780.02 539.76 a7.5 7.5 0 1 0 15 0 a7.5 7.5 0 1 0 -15 0zM844.98 577.26 a7.5 7.5 0 1 0 15 0 a7.5 7.5 0 1 0 -15 0zM844.98 652.26 a7.5 7.5 0 1 0 15 0 a7.5 7.5 0 1 0 -15 0zM780.02 689.76 a7.5 7.5 0 1 0 15 0 a7.5 7.5 0 1 0 -15 0zM715.07 652.26 a7.5 7.5 0 1 0 15 0 a7.5 7.5 0 1 0 -15 0zM715.07 577.26 a7.5 7.5 0 1 0 15 0 a7.5 7.5 0 1 0 -15 0zM844.97 -22.74 a7.5 7.5 0 1 0 15 0 a7.5 7.5 0 1 0 -15 0zM909.93 14.76 a7.5 7.5 0 1 0 15 0 a7.5 7.5 0 1 0 -15 0zM909.93 89.76 a7.5 7.5 0 1 0 15 0 a7.5 7.5 0 1 0 -15 0zM844.97 127.26 a7.5 7.5 0 1 0 15 0 a7.5 7.5 0 1 0 -15 0zM780.02 89.76 a7.5 7.5 0 1 0 15 0 a7.5 7.5 0 1 0 -15 0zM780.02 14.76 a7.5 7.5 0 1 0 15 0 a7.5 7.5 0 1 0 -15 0zM974.88 127.26 a7.5 7.5 0 1 0 15 0 a7.5 7.5 0 1 0 -15 0zM974.88 202.26 a7.5 7.5 0 1 0 15 0 a7.5 7.5 0 1 0 -15 0zM909.93 239.76 a7.5 7.5 0 1 0 15 0 a7.5 7.5 0 1 0 -15 0zM844.97 202.26 a7.5 7.5 0 1 0 15 0 a7.5 7.5 0 1 0 -15 0zM909.93 314.76 a7.5 7.5 0 1 0 15 0 a7.5 7.5 0 1 0 -15 0zM844.97 352.26 a7.5 7.5 0 1 0 15 0 a7.5 7.5 0 1 0 -15 0zM844.97 652.26 a7.5 7.5 0 1 0 15 0 a7.5 7.5 0 1 0 -15 0zM909.93 689.76 a7.5 7.5 0 1 0 15 0 a7.5 7.5 0 1 0 -15 0zM909.93 764.76 a7.5 7.5 0 1 0 15 0 a7.5 7.5 0 1 0 -15 0zM844.97 802.26 a7.5 7.5 0 1 0 15 0 a7.5 7.5 0 1 0 -15 0zM780.02 764.76 a7.5 7.5 0 1 0 15 0 a7.5 7.5 0 1 0 -15 0zM974.88 -22.74 a7.5 7.5 0 1 0 15 0 a7.5 7.5 0 1 0 -15 0zM1039.84 14.76 a7.5 7.5 0 1 0 15 0 a7.5 7.5 0 1 0 -15 0zM1039.84 89.76 a7.5 7.5 0 1 0 15 0 a7.5 7.5 0 1 0 -15 0zM1039.84 539.76 a7.5 7.5 0 1 0 15 0 a7.5 7.5 0 1 0 -15 0zM1104.79 577.26 a7.5 7.5 0 1 0 15 0 a7.5 7.5 0 1 0 -15 0zM1104.79 652.26 a7.5 7.5 0 1 0 15 0 a7.5 7.5 0 1 0 -15 0zM1039.84 689.76 a7.5 7.5 0 1 0 15 0 a7.5 7.5 0 1 0 -15 0zM974.88 652.26 a7.5 7.5 0 1 0 15 0 a7.5 7.5 0 1 0 -15 0zM974.88 577.26 a7.5 7.5 0 1 0 15 0 a7.5 7.5 0 1 0 -15 0zM1169.74 314.76 a7.5 7.5 0 1 0 15 0 a7.5 7.5 0 1 0 -15 0zM1234.7 352.26 a7.5 7.5 0 1 0 15 0 a7.5 7.5 0 1 0 -15 0zM1234.7 427.26 a7.5 7.5 0 1 0 15 0 a7.5 7.5 0 1 0 -15 0zM1169.74 464.76 a7.5 7.5 0 1 0 15 0 a7.5 7.5 0 1 0 -15 0zM1104.79 427.26 a7.5 7.5 0 1 0 15 0 a7.5 7.5 0 1 0 -15 0zM1104.79 352.26 a7.5 7.5 0 1 0 15 0 a7.5 7.5 0 1 0 -15 0zM1169.74 689.76 a7.5 7.5 0 1 0 15 0 a7.5 7.5 0 1 0 -15 0zM1169.74 764.76 a7.5 7.5 0 1 0 15 0 a7.5 7.5 0 1 0 -15 0zM1104.79 802.26 a7.5 7.5 0 1 0 15 0 a7.5 7.5 0 1 0 -15 0zM1039.84 764.76 a7.5 7.5 0 1 0 15 0 a7.5 7.5 0 1 0 -15 0zM1234.7 802.26 a7.5 7.5 0 1 0 15 0 a7.5 7.5 0 1 0 -15 0zM1234.7 877.26 a7.5 7.5 0 1 0 15 0 a7.5 7.5 0 1 0 -15 0zM1169.74 914.76 a7.5 7.5 0 1 0 15 0 a7.5 7.5 0 1 0 -15 0zM1104.79 877.26 a7.5 7.5 0 1 0 15 0 a7.5 7.5 0 1 0 -15 0zM1299.65 89.76 a7.5 7.5 0 1 0 15 0 a7.5 7.5 0 1 0 -15 0zM1364.6 127.26 a7.5 7.5 0 1 0 15 0 a7.5 7.5 0 1 0 -15 0zM1364.6 202.26 a7.5 7.5 0 1 0 15 0 a7.5 7.5 0 1 0 -15 0zM1299.65 239.76 a7.5 7.5 0 1 0 15 0 a7.5 7.5 0 1 0 -15 0zM1234.7 202.26 a7.5 7.5 0 1 0 15 0 a7.5 7.5 0 1 0 -15 0zM1234.7 127.26 a7.5 7.5 0 1 0 15 0 a7.5 7.5 0 1 0 -15 0zM1299.65 314.76 a7.5 7.5 0 1 0 15 0 a7.5 7.5 0 1 0 -15 0zM1169.74 239.76 a7.5 7.5 0 1 0 15 0 a7.5 7.5 0 1 0 -15 0zM1299.65 464.76 a7.5 7.5 0 1 0 15 0 a7.5 7.5 0 1 0 -15 0zM1299.65 539.76 a7.5 7.5 0 1 0 15 0 a7.5 7.5 0 1 0 -15 0zM1234.7 577.26 a7.5 7.5 0 1 0 15 0 a7.5 7.5 0 1 0 -15 0zM1169.74 539.76 a7.5 7.5 0 1 0 15 0 a7.5 7.5 0 1 0 -15 0zM1299.65 764.76 a7.5 7.5 0 1 0 15 0 a7.5 7.5 0 1 0 -15 0zM1364.6 802.26 a7.5 7.5 0 1 0 15 0 a7.5 7.5 0 1 0 -15 0zM1364.6 877.26 a7.5 7.5 0 1 0 15 0 a7.5 7.5 0 1 0 -15 0zM1299.65 914.76 a7.5 7.5 0 1 0 15 0 a7.5 7.5 0 1 0 -15 0zM1364.61 -22.74 a7.5 7.5 0 1 0 15 0 a7.5 7.5 0 1 0 -15 0zM1429.56 14.76 a7.5 7.5 0 1 0 15 0 a7.5 7.5 0 1 0 -15 0zM1429.56 89.76 a7.5 7.5 0 1 0 15 0 a7.5 7.5 0 1 0 -15 0zM1364.61 127.26 a7.5 7.5 0 1 0 15 0 a7.5 7.5 0 1 0 -15 0zM1299.65 14.76 a7.5 7.5 0 1 0 15 0 a7.5 7.5 0 1 0 -15 0zM1364.61 202.26 a7.5 7.5 0 1 0 15 0 a7.5 7.5 0 1 0 -15 0zM1429.56 239.76 a7.5 7.5 0 1 0 15 0 a7.5 7.5 0 1 0 -15 0zM1429.56 314.76 a7.5 7.5 0 1 0 15 0 a7.5 7.5 0 1 0 -15 0zM1364.61 352.26 a7.5 7.5 0 1 0 15 0 a7.5 7.5 0 1 0 -15 0zM1494.51 352.26 a7.5 7.5 0 1 0 15 0 a7.5 7.5 0 1 0 -15 0zM1494.51 427.26 a7.5 7.5 0 1 0 15 0 a7.5 7.5 0 1 0 -15 0zM1429.56 464.76 a7.5 7.5 0 1 0 15 0 a7.5 7.5 0 1 0 -15 0zM1364.61 427.26 a7.5 7.5 0 1 0 15 0 a7.5 7.5 0 1 0 -15 0zM1429.56 764.76 a7.5 7.5 0 1 0 15 0 a7.5 7.5 0 1 0 -15 0zM1494.51 802.26 a7.5 7.5 0 1 0 15 0 a7.5 7.5 0 1 0 -15 0zM1494.51 877.26 a7.5 7.5 0 1 0 15 0 a7.5 7.5 0 1 0 -15 0zM1429.56 914.76 a7.5 7.5 0 1 0 15 0 a7.5 7.5 0 1 0 -15 0zM1364.61 877.26 a7.5 7.5 0 1 0 15 0 a7.5 7.5 0 1 0 -15 0zM1364.61 802.26 a7.5 7.5 0 1 0 15 0 a7.5 7.5 0 1 0 -15 0zM1494.51 -22.74 a7.5 7.5 0 1 0 15 0 a7.5 7.5 0 1 0 -15 0zM1559.47 14.76 a7.5 7.5 0 1 0 15 0 a7.5 7.5 0 1 0 -15 0zM1559.47 89.76 a7.5 7.5 0 1 0 15 0 a7.5 7.5 0 1 0 -15 0zM1494.51 127.26 a7.5 7.5 0 1 0 15 0 a7.5 7.5 0 1 0 -15 0zM1559.47 539.76 a7.5 7.5 0 1 0 15 0 a7.5 7.5 0 1 0 -15 0zM1624.42 577.26 a7.5 7.5 0 1 0 15 0 a7.5 7.5 0 1 0 -15 0zM1624.42 652.26 a7.5 7.5 0 1 0 15 0 a7.5 7.5 0 1 0 -15 0zM1559.47 689.76 a7.5 7.5 0 1 0 15 0 a7.5 7.5 0 1 0 -15 0zM1494.51 652.26 a7.5 7.5 0 1 0 15 0 a7.5 7.5 0 1 0 -15 0zM1494.51 577.26 a7.5 7.5 0 1 0 15 0 a7.5 7.5 0 1 0 -15 0zM1559.47 764.76 a7.5 7.5 0 1 0 15 0 a7.5 7.5 0 1 0 -15 0zM1429.56 689.76 a7.5 7.5 0 1 0 15 0 a7.5 7.5 0 1 0 -15 0zM1624.42 427.26 a7.5 7.5 0 1 0 15 0 a7.5 7.5 0 1 0 -15 0zM1689.37 464.76 a7.5 7.5 0 1 0 15 0 a7.5 7.5 0 1 0 -15 0zM1689.37 539.76 a7.5 7.5 0 1 0 15 0 a7.5 7.5 0 1 0 -15 0zM1559.47 464.76 a7.5 7.5 0 1 0 15 0 a7.5 7.5 0 1 0 -15 0zM1754.33 577.26 a7.5 7.5 0 1 0 15 0 a7.5 7.5 0 1 0 -15 0zM1754.33 652.26 a7.5 7.5 0 1 0 15 0 a7.5 7.5 0 1 0 -15 0zM1689.37 689.76 a7.5 7.5 0 1 0 15 0 a7.5 7.5 0 1 0 -15 0zM1689.37 764.76 a7.5 7.5 0 1 0 15 0 a7.5 7.5 0 1 0 -15 0zM1624.42 802.26 a7.5 7.5 0 1 0 15 0 a7.5 7.5 0 1 0 -15 0zM1754.33 802.26 a7.5 7.5 0 1 0 15 0 a7.5 7.5 0 1 0 -15 0zM1754.33 877.26 a7.5 7.5 0 1 0 15 0 a7.5 7.5 0 1 0 -15 0zM1689.37 914.76 a7.5 7.5 0 1 0 15 0 a7.5 7.5 0 1 0 -15 0zM1624.42 877.26 a7.5 7.5 0 1 0 15 0 a7.5 7.5 0 1 0 -15 0zM1819.28 89.76 a7.5 7.5 0 1 0 15 0 a7.5 7.5 0 1 0 -15 0zM1884.23 127.26 a7.5 7.5 0 1 0 15 0 a7.5 7.5 0 1 0 -15 0zM1884.23 202.26 a7.5 7.5 0 1 0 15 0 a7.5 7.5 0 1 0 -15 0zM1819.28 239.76 a7.5 7.5 0 1 0 15 0 a7.5 7.5 0 1 0 -15 0zM1754.33 202.26 a7.5 7.5 0 1 0 15 0 a7.5 7.5 0 1 0 -15 0zM1754.33 127.26 a7.5 7.5 0 1 0 15 0 a7.5 7.5 0 1 0 -15 0zM1819.28 539.76 a7.5 7.5 0 1 0 15 0 a7.5 7.5 0 1 0 -15 0zM1884.23 577.26 a7.5 7.5 0 1 0 15 0 a7.5 7.5 0 1 0 -15 0zM1884.23 652.26 a7.5 7.5 0 1 0 15 0 a7.5 7.5 0 1 0 -15 0zM1819.28 689.76 a7.5 7.5 0 1 0 15 0 a7.5 7.5 0 1 0 -15 0zM1819.28 764.76 a7.5 7.5 0 1 0 15 0 a7.5 7.5 0 1 0 -15 0zM1884.23 802.26 a7.5 7.5 0 1 0 15 0 a7.5 7.5 0 1 0 -15 0zM1884.23 877.26 a7.5 7.5 0 1 0 15 0 a7.5 7.5 0 1 0 -15 0zM1819.28 914.76 a7.5 7.5 0 1 0 15 0 a7.5 7.5 0 1 0 -15 0zM1949.19 89.76 a7.5 7.5 0 1 0 15 0 a7.5 7.5 0 1 0 -15 0zM2014.14 127.26 a7.5 7.5 0 1 0 15 0 a7.5 7.5 0 1 0 -15 0zM2014.14 202.26 a7.5 7.5 0 1 0 15 0 a7.5 7.5 0 1 0 -15 0zM1949.19 239.76 a7.5 7.5 0 1 0 15 0 a7.5 7.5 0 1 0 -15 0zM1949.19 314.76 a7.5 7.5 0 1 0 15 0 a7.5 7.5 0 1 0 -15 0zM2014.14 352.26 a7.5 7.5 0 1 0 15 0 a7.5 7.5 0 1 0 -15 0zM2014.14 427.26 a7.5 7.5 0 1 0 15 0 a7.5 7.5 0 1 0 -15 0zM1949.19 464.76 a7.5 7.5 0 1 0 15 0 a7.5 7.5 0 1 0 -15 0zM1884.23 427.26 a7.5 7.5 0 1 0 15 0 a7.5 7.5 0 1 0 -15 0zM1884.23 352.26 a7.5 7.5 0 1 0 15 0 a7.5 7.5 0 1 0 -15 0zM1949.19 539.76 a7.5 7.5 0 1 0 15 0 a7.5 7.5 0 1 0 -15 0zM1819.28 464.76 a7.5 7.5 0 1 0 15 0 a7.5 7.5 0 1 0 -15 0zM1949.19 689.76 a7.5 7.5 0 1 0 15 0 a7.5 7.5 0 1 0 -15 0zM1949.19 764.76 a7.5 7.5 0 1 0 15 0 a7.5 7.5 0 1 0 -15 0zM2014.14 -22.74 a7.5 7.5 0 1 0 15 0 a7.5 7.5 0 1 0 -15 0zM2079.1 14.76 a7.5 7.5 0 1 0 15 0 a7.5 7.5 0 1 0 -15 0zM2079.1 89.76 a7.5 7.5 0 1 0 15 0 a7.5 7.5 0 1 0 -15 0zM1949.19 14.76 a7.5 7.5 0 1 0 15 0 a7.5 7.5 0 1 0 -15 0zM2014.14 652.26 a7.5 7.5 0 1 0 15 0 a7.5 7.5 0 1 0 -15 0zM2079.1 689.76 a7.5 7.5 0 1 0 15 0 a7.5 7.5 0 1 0 -15 0zM2079.1 764.76 a7.5 7.5 0 1 0 15 0 a7.5 7.5 0 1 0 -15 0zM2014.14 802.26 a7.5 7.5 0 1 0 15 0 a7.5 7.5 0 1 0 -15 0z" fill="rgba(151, 0, 240, 0.47)"></path><path d="M52.08 224.38L95.39 249.38L95.39 299.38L52.08 324.38L8.78 299.38L8.78 249.38zM8.78 299.38L52.08 324.38L52.08 374.38L8.78 399.38L-34.52 374.38L-34.52 324.38zM8.78 449.38L52.08 474.38L52.08 524.38L8.78 549.38L-34.52 524.38L-34.52 474.38zM52.08 524.38L95.39 549.38L95.39 599.38L52.08 624.38L8.78 599.38L8.78 549.38zM52.08 674.38L95.39 699.38L95.39 749.38L52.08 774.38L8.78 749.38L8.78 699.38zM138.69 74.38L181.99 99.38L181.99 149.38L138.69 174.38L95.39 149.38L95.39 99.38zM138.69 524.38L181.99 549.38L181.99 599.38L138.69 624.38L95.39 599.38L95.39 549.38zM225.29 674.38L268.59 699.38L268.59 749.38L225.29 774.38L181.99 749.38L181.99 699.38zM268.59 -0.62L311.9 24.38L311.9 74.38L268.59 99.38L225.29 74.38L225.29 24.38zM311.9 74.38L355.2 99.38L355.2 149.38L311.9 174.38L268.59 149.38L268.59 99.38zM268.59 299.38L311.9 324.38L311.9 374.38L268.59 399.38L225.29 374.38L225.29 324.38zM311.9 524.38L355.2 549.38L355.2 599.38L311.9 624.38L268.59 599.38L268.59 549.38zM311.9 824.38L355.2 849.38L355.2 899.38L311.9 924.38L268.59 899.38L268.59 849.38zM355.2 -0.62L398.5 24.38L398.5 74.38L355.2 99.38L311.9 74.38L311.9 24.38zM398.5 74.38L441.81 99.38L441.81 149.38L398.5 174.38L355.2 149.38L355.2 99.38zM398.5 374.38L441.81 399.38L441.81 449.38L398.5 474.38L355.2 449.38L355.2 399.38zM398.5 524.38L441.81 549.38L441.81 599.38L398.5 624.38L355.2 599.38L355.2 549.38zM485.11 74.38L528.41 99.38L528.41 149.38L485.11 174.38L441.81 149.38L441.81 99.38zM485.11 374.38L528.41 399.38L528.41 449.38L485.11 474.38L441.81 449.38L441.81 399.38zM441.81 449.38L485.11 474.38L485.11 524.38L441.81 549.38L398.5 524.38L398.5 474.38zM441.81 599.38L485.11 624.38L485.11 674.38L441.81 699.38L398.5 674.38L398.5 624.38zM571.71 74.38L615.01 99.38L615.01 149.38L571.71 174.38L528.41 149.38L528.41 99.38zM571.71 824.38L615.01 849.38L615.01 899.38L571.71 924.38L528.41 899.38L528.41 849.38zM658.32 224.38L701.62 249.38L701.62 299.38L658.32 324.38L615.01 299.38L615.01 249.38zM658.32 674.38L701.62 699.38L701.62 749.38L658.32 774.38L615.01 749.38L615.01 699.38zM744.92 74.38L788.23 99.38L788.23 149.38L744.92 174.38L701.62 149.38L701.62 99.38zM831.53 74.38L874.83 99.38L874.83 149.38L831.53 174.38L788.23 149.38L788.23 99.38zM788.23 299.38L831.53 324.38L831.53 374.38L788.23 399.38L744.92 374.38L744.92 324.38zM788.23 449.38L831.53 474.38L831.53 524.38L788.23 549.38L744.92 524.38L744.92 474.38zM788.23 599.38L831.53 624.38L831.53 674.38L788.23 699.38L744.92 674.38L744.92 624.38zM831.53 674.38L874.83 699.38L874.83 749.38L831.53 774.38L788.23 749.38L788.23 699.38zM831.53 824.38L874.83 849.38L874.83 899.38L831.53 924.38L788.23 899.38L788.23 849.38zM874.83 -0.62L918.13 24.38L918.13 74.38L874.83 99.38L831.53 74.38L831.53 24.38zM874.83 149.38L918.13 174.38L918.13 224.38L874.83 249.38L831.53 224.38L831.53 174.38zM874.83 749.38L918.13 774.38L918.13 824.38L874.83 849.38L831.53 824.38L831.53 774.38zM918.13 824.38L961.44 849.38L961.44 899.38L918.13 924.38L874.83 899.38L874.83 849.38zM1004.74 374.38L1048.04 399.38L1048.04 449.38L1004.74 474.38L961.44 449.38L961.44 399.38zM961.44 449.38L1004.74 474.38L1004.74 524.38L961.44 549.38L918.13 524.38L918.13 474.38zM1177.95 74.38L1221.25 99.38L1221.25 149.38L1177.95 174.38L1134.64 149.38L1134.64 99.38zM1134.64 149.38L1177.95 174.38L1177.95 224.38L1134.64 249.38L1091.34 224.38L1091.34 174.38zM1221.25 -0.62L1264.55 24.38L1264.55 74.38L1221.25 99.38L1177.95 74.38L1177.95 24.38zM1264.55 74.38L1307.86 99.38L1307.86 149.38L1264.55 174.38L1221.25 149.38L1221.25 99.38zM1221.25 449.38L1264.55 474.38L1264.55 524.38L1221.25 549.38L1177.95 524.38L1177.95 474.38zM1221.25 599.38L1264.55 624.38L1264.55 674.38L1221.25 699.38L1177.95 674.38L1177.95 624.38zM1264.55 674.38L1307.86 699.38L1307.86 749.38L1264.55 774.38L1221.25 749.38L1221.25 699.38zM1307.86 299.38L1351.16 324.38L1351.16 374.38L1307.86 399.38L1264.55 374.38L1264.55 324.38zM1394.46 -0.62L1437.76 24.38L1437.76 74.38L1394.46 99.38L1351.16 74.38L1351.16 24.38zM1394.46 749.38L1437.76 774.38L1437.76 824.38L1394.46 849.38L1351.16 824.38L1351.16 774.38zM1481.07 -0.62L1524.37 24.38L1524.37 74.38L1481.07 99.38L1437.76 74.38L1437.76 24.38zM1610.97 524.38L1654.28 549.38L1654.28 599.38L1610.97 624.38L1567.67 599.38L1567.67 549.38zM1697.58 524.38L1740.88 549.38L1740.88 599.38L1697.58 624.38L1654.28 599.38L1654.28 549.38zM1697.58 824.38L1740.88 849.38L1740.88 899.38L1697.58 924.38L1654.28 899.38L1654.28 849.38zM1740.88 149.38L1784.18 174.38L1784.18 224.38L1740.88 249.38L1697.58 224.38L1697.58 174.38zM1784.18 224.38L1827.49 249.38L1827.49 299.38L1784.18 324.38L1740.88 299.38L1740.88 249.38zM1827.49 299.38L1870.79 324.38L1870.79 374.38L1827.49 399.38L1784.18 374.38L1784.18 324.38zM1827.49 749.38L1870.79 774.38L1870.79 824.38L1827.49 849.38L1784.18 824.38L1784.18 774.38zM1914.09 -0.62L1957.39 24.38L1957.39 74.38L1914.09 99.38L1870.79 74.38L1870.79 24.38zM1914.09 149.38L1957.39 174.38L1957.39 224.38L1914.09 249.38L1870.79 224.38L1870.79 174.38zM1957.39 224.38L2000.7 249.38L2000.7 299.38L1957.39 324.38L1914.09 299.38L1914.09 249.38zM1957.39 374.38L2000.7 399.38L2000.7 449.38L1957.39 474.38L1914.09 449.38L1914.09 399.38zM1957.39 524.38L2000.7 549.38L2000.7 599.38L1957.39 624.38L1914.09 599.38L1914.09 549.38zM1914.09 599.38L1957.39 624.38L1957.39 674.38L1914.09 699.38L1870.79 674.38L1870.79 624.38z" stroke="rgba(164, 24, 181, 0.93)" stroke-width="2"></path></g><defs><mask id="SvgjsMask1415"><rect width="1980" height="800" fill="#ffffff"></rect></mask><linearGradient x1="14.9%" y1="-36.87%" x2="85.1%" y2="136.88%" gradientUnits="userSpaceOnUse" id="SvgjsLinearGradient1416"><stop stop-color="rgba(244, 227, 27, 1)" offset="0"></stop><stop stop-color="rgba(255, 255, 255, 1)" offset="1"></stop></linearGradient></defs></svg>