<svg display="none" xmlns="http://www.w3.org/2000/svg">
    <symbol id="logo-icon"  viewBox="0 0 511.739 511.739">
        <g>
            <path d="m511.845 171.839c-2.329-116.319-144.271-202.043-255.908-104.427-111.562-97.553-253.578-11.949-255.908 104.427-.854 42.637 17.215 83.688 52.251 118.716.095.1 71.118 70.733 193.075 192.027 5.852 5.821 15.31 5.822 21.164 0l193.075-192.027c35.036-35.027 53.104-76.079 52.251-118.716zm-255.908 278.951-164.736-163.842h52.708c5.27 0 10.154-2.765 12.865-7.282l11.516-19.188 42.98 67.523c6.321 9.933 21.163 9.035 26.217-1.632l59.316-125.19 41.946 77.881c2.617 4.858 7.69 7.889 13.21 7.889h68.712zm193.758-193.842h-88.773l-51.765-96.111c-5.803-10.774-21.496-10.44-26.769.69l-60.388 127.452-41.427-65.083c-6.04-9.494-19.838-9.136-25.523.335l-19.635 32.718h-73.233c-21.672-26.059-32.742-54.999-32.152-84.509 1.873-93.531 121.098-168.061 215.298-73.885 5.854 5.853 15.36 5.858 21.218 0 120.273-120.246 285.622 35.198 183.149 158.393z"/>
        </g>
    </symbol>
    <symbol id="github-icon" viewBox="0 0 512 512">
        <path d="M255.968,5.329C114.624,5.329,0,120.401,0,262.353c0,113.536,73.344,209.856,175.104,243.872
                c12.8,2.368,17.472-5.568,17.472-12.384c0-6.112-0.224-22.272-0.352-43.712c-71.2,15.52-86.24-34.464-86.24-34.464
                c-11.616-29.696-28.416-37.6-28.416-37.6c-23.264-15.936,1.728-15.616,1.728-15.616c25.696,1.824,39.2,26.496,39.2,26.496
                c22.848,39.264,59.936,27.936,74.528,21.344c2.304-16.608,8.928-27.936,16.256-34.368
                c-56.832-6.496-116.608-28.544-116.608-127.008c0-28.064,9.984-51.008,26.368-68.992c-2.656-6.496-11.424-32.64,2.496-68
                c0,0,21.504-6.912,70.4,26.336c20.416-5.696,42.304-8.544,64.096-8.64c21.728,0.128,43.648,2.944,64.096,8.672
                c48.864-33.248,70.336-26.336,70.336-26.336c13.952,35.392,5.184,61.504,2.56,68c16.416,17.984,26.304,40.928,26.304,68.992
                c0,98.72-59.84,120.448-116.864,126.816c9.184,7.936,17.376,23.616,17.376,47.584c0,34.368-0.32,62.08-0.32,70.496
                c0,6.88,4.608,14.88,17.6,12.352C438.72,472.145,512,375.857,512,262.353C512,120.401,397.376,5.329,255.968,5.329z"/>   
    </symbol>
    <symbol id="drug-icon" viewBox="0 0 512 512">
        <path d="m472.429688 39.5625c-25.496094-25.511719-59.414063-39.5625-95.488282-39.5625-36.078125 0-69.984375 14.050781-95.492187 39.5625l-120.945313 120.941406-120.949218 120.957032c-25.503907 25.511718-39.554688 59.429687-39.554688 95.496093 0 36.066407 14.050781 69.984375 39.554688 95.480469 25.496093 25.511719 59.414062 39.5625 95.488281 39.5625s69.984375-14.050781 95.488281-39.5625l120.949219-120.941406 120.949219-120.957032c25.503906-25.511718 39.550781-59.429687 39.550781-95.496093 0-36.066407-14.046875-69.984375-39.550781-95.480469zm-267.359376 407.414062c-18.710937 18.707032-43.582031 29.015626-70.027343 29.015626-26.457031 0-51.320313-10.304688-70.027344-29.015626-18.707031-18.710937-29.003906-43.570312-29.003906-70.015624 0-26.445313 10.304687-51.328126 29.003906-70.035157l108.21875-108.226562 140.054687 140.070312zm241.898438-241.898437-108.21875 108.226563-140.054688-140.070313 108.21875-108.210937c18.707032-18.707032 43.578126-29.015626 70.027344-29.015626 26.453125 0 51.316406 10.304688 70.023438 29.015626 18.707031 18.710937 29.003906 43.570312 29.003906 70.015624 0 26.445313-10.300781 51.328126-29 70.039063zm0 0"/><path d="m425.09375 121.414062c-5.742188 0-11.386719-2.742187-14.875-7.824218-8.425781-12.308594-22.324219-19.640625-37.191406-19.640625-12.027344 0-23.324219 4.675781-31.835938 13.1875-7.035156 7.03125-18.429687 7.03125-25.460937 0-7.03125-7.035157-7.03125-18.429688 0-25.460938 15.308593-15.316406 35.652343-23.738281 57.296875-23.738281 26.753906 0 51.765625 13.1875 66.90625 35.292969 5.617187 8.207031 3.527344 19.410156-4.683594 25.039062-3.105469 2.125-6.648438 3.144531-10.15625 3.144531zm0 0"/>
    </symbol>
</svg>