<svg display="none" xmlns="http://www.w3.org/2000/svg">
    <symbol id="logo-icon"  viewBox="0 0 511.739 511.739">
        <g>
            <path d="m511.845 171.839c-2.329-116.319-144.271-202.043-255.908-104.427-111.562-97.553-253.578-11.949-255.908 104.427-.854 42.637 17.215 83.688 52.251 118.716.095.1 71.118 70.733 193.075 192.027 5.852 5.821 15.31 5.822 21.164 0l193.075-192.027c35.036-35.027 53.104-76.079 52.251-118.716zm-255.908 278.951-164.736-163.842h52.708c5.27 0 10.154-2.765 12.865-7.282l11.516-19.188 42.98 67.523c6.321 9.933 21.163 9.035 26.217-1.632l59.316-125.19 41.946 77.881c2.617 4.858 7.69 7.889 13.21 7.889h68.712zm193.758-193.842h-88.773l-51.765-96.111c-5.803-10.774-21.496-10.44-26.769.69l-60.388 127.452-41.427-65.083c-6.04-9.494-19.838-9.136-25.523.335l-19.635 32.718h-73.233c-21.672-26.059-32.742-54.999-32.152-84.509 1.873-93.531 121.098-168.061 215.298-73.885 5.854 5.853 15.36 5.858 21.218 0 120.273-120.246 285.622 35.198 183.149 158.393z"/>
        </g>
    </symbol>
    <symbol id="github-icon" viewBox="0 0 512 512">
    <path d="M255.968,5.329C114.624,5.329,0,120.401,0,262.353c0,113.536,73.344,209.856,175.104,243.872
			c12.8,2.368,17.472-5.568,17.472-12.384c0-6.112-0.224-22.272-0.352-43.712c-71.2,15.52-86.24-34.464-86.24-34.464
			c-11.616-29.696-28.416-37.6-28.416-37.6c-23.264-15.936,1.728-15.616,1.728-15.616c25.696,1.824,39.2,26.496,39.2,26.496
			c22.848,39.264,59.936,27.936,74.528,21.344c2.304-16.608,8.928-27.936,16.256-34.368
			c-56.832-6.496-116.608-28.544-116.608-127.008c0-28.064,9.984-51.008,26.368-68.992c-2.656-6.496-11.424-32.64,2.496-68
			c0,0,21.504-6.912,70.4,26.336c20.416-5.696,42.304-8.544,64.096-8.64c21.728,0.128,43.648,2.944,64.096,8.672
			c48.864-33.248,70.336-26.336,70.336-26.336c13.952,35.392,5.184,61.504,2.56,68c16.416,17.984,26.304,40.928,26.304,68.992
			c0,98.72-59.84,120.448-116.864,126.816c9.184,7.936,17.376,23.616,17.376,47.584c0,34.368-0.32,62.08-0.32,70.496
			c0,6.88,4.608,14.88,17.6,12.352C438.72,472.145,512,375.857,512,262.353C512,120.401,397.376,5.329,255.968,5.329z"/>
	
    </symbol>
</svg>